<mxfile host="app.diagrams.net" modified="2024-05-24T03:16:11.209Z" agent="Mozilla/5.0 (Windows NT 10.0; Win64; x64) AppleWebKit/537.36 (KHTML, like Gecko) Chrome/125.0.0.0 Safari/537.36" version="24.4.7" etag="QszEGnFaeRit72C4h2Yy" type="github">
  <diagram name="Halaman-1" id="Zp0pQLkvDptSXfdF52i3">
    <mxGraphModel>
      <root>
        <mxCell id="0" />
        <mxCell id="1" parent="0" />
      </root>
    </mxGraphModel>
  </diagram>
</mxfile>
